<?xml version="1.0" standalone="no"?>
<!DOCTYPE svg PUBLIC "-//W3C//DTD SVG 20010904//EN"
 "http://www.w3.org/TR/2001/REC-SVG-20010904/DTD/svg10.dtd">
<svg version="1.0" xmlns="http://www.w3.org/2000/svg"
 width="928.000000pt" height="928.000000pt" viewBox="0 0 928.000000 928.000000"
 preserveAspectRatio="xMidYMid meet">
<metadata>
Created by potrace 1.11, written by Peter Selinger 2001-2013
</metadata>
<g transform="translate(0.000000,928.000000) scale(0.100000,-0.100000)"
fill="#000000" stroke="none">
<path d="M4344 8761 c-2 -3 -32 -6 -67 -7 -66 -3 -160 -11 -217 -19 -19 -3
-60 -8 -90 -10 -30 -2 -55 -4 -55 -5 0 -2 -38 -9 -80 -14 -22 -2 -40 -5 -40
-6 0 -1 -13 -4 -28 -6 -16 -1 -52 -8 -80 -14 -29 -5 -63 -13 -77 -15 -14 -3
-38 -8 -55 -12 -16 -3 -39 -7 -51 -8 -11 -1 -25 -4 -30 -8 -6 -3 -21 -8 -35
-11 -44 -8 -83 -18 -189 -48 -58 -17 -112 -32 -120 -33 -8 -2 -15 -4 -15 -4 0
-2 -232 -81 -251 -86 -12 -3 -35 -12 -50 -20 -16 -8 -33 -15 -37 -15 -8 0
-101 -38 -192 -79 -114 -51 -382 -185 -397 -199 -10 -8 -18 -11 -18 -6 0 5 -4
4 -8 -2 -4 -5 -38 -28 -76 -50 -38 -21 -80 -47 -95 -56 -14 -10 -39 -25 -55
-34 -16 -9 -34 -20 -40 -25 -23 -19 -142 -100 -156 -106 -8 -4 -24 -15 -35
-26 -11 -10 -35 -27 -52 -38 -18 -12 -33 -24 -33 -29 0 -5 -8 -11 -18 -14 -10
-4 -27 -14 -38 -24 -11 -9 -51 -43 -89 -75 -108 -90 -200 -174 -299 -273 -101
-102 -196 -204 -196 -210 0 -3 -17 -22 -38 -43 -21 -21 -44 -47 -52 -58 -8
-12 -60 -81 -116 -154 -55 -74 -111 -152 -124 -174 -13 -22 -27 -42 -30 -45
-3 -3 -24 -34 -45 -70 -21 -36 -43 -67 -47 -68 -4 -2 -6 -7 -3 -12 3 -5 0 -15
-7 -22 -23 -25 -140 -250 -190 -363 -16 -38 -36 -83 -44 -100 -20 -46 -81
-212 -105 -290 -27 -84 -25 -77 -54 -185 -14 -54 -48 -200 -52 -225 -7 -41
-11 -60 -13 -60 -1 0 -3 -9 -4 -20 -10 -76 -18 -134 -23 -160 -3 -16 -7 -48
-8 -70 -2 -22 -4 -40 -5 -40 -12 0 -18 -550 -7 -675 11 -121 16 -171 22 -207
3 -18 8 -50 11 -71 6 -40 10 -61 20 -107 3 -16 7 -37 8 -45 1 -8 6 -31 10 -50
4 -19 9 -44 11 -55 2 -11 4 -20 5 -20 1 0 3 -11 6 -24 5 -28 62 -228 71 -251
3 -8 7 -19 8 -25 4 -19 33 -100 55 -155 12 -30 23 -62 25 -70 2 -8 18 -46 35
-85 18 -38 32 -70 30 -70 -2 0 136 -273 150 -295 31 -51 90 -153 90 -156 0 -5
41 -65 50 -74 3 -3 11 -17 19 -32 8 -15 22 -37 33 -47 10 -11 18 -24 18 -29 0
-5 9 -17 20 -27 11 -10 20 -24 20 -31 0 -7 3 -14 8 -16 4 -1 27 -30 52 -63 25
-33 47 -62 50 -65 3 -3 27 -32 54 -65 125 -157 365 -402 522 -534 16 -14 54
-46 85 -73 30 -26 58 -48 62 -48 3 0 18 -11 32 -24 15 -14 67 -53 117 -88 49
-35 99 -71 110 -80 12 -10 25 -18 29 -18 4 0 14 -6 21 -13 7 -7 45 -32 83 -55
39 -24 79 -48 90 -55 10 -7 25 -18 33 -24 7 -7 22 -13 32 -13 10 0 20 -4 22
-8 2 -4 23 -19 48 -34 49 -28 292 -152 300 -153 3 -1 32 -14 65 -29 33 -15 74
-34 90 -41 40 -18 267 -107 280 -110 10 -2 36 -11 70 -25 11 -4 40 -14 65 -21
25 -7 51 -17 58 -22 6 -5 12 -7 12 -4 0 3 28 -4 63 -14 34 -11 73 -22 87 -25
14 -2 36 -9 50 -14 30 -10 164 -41 310 -71 117 -23 124 -25 195 -34 28 -3 57
-8 65 -10 28 -7 125 -18 172 -19 27 -1 48 -4 48 -7 0 -5 39 -9 140 -13 25 -1
50 -4 55 -8 13 -7 641 -2 720 6 33 4 83 8 110 11 97 9 160 15 193 20 17 3 49
8 70 11 20 3 48 7 62 10 14 2 41 7 60 9 19 3 55 10 80 15 25 5 56 12 70 14 32
5 55 10 165 37 50 11 101 23 114 25 14 3 28 7 33 10 5 3 21 7 36 10 15 3 44
11 65 19 20 8 37 12 37 9 0 -4 7 -1 15 6 8 7 15 10 15 7 0 -3 16 1 35 9 19 8
35 11 35 8 0 -4 7 0 17 7 9 8 18 13 19 12 2 -1 9 -1 16 2 7 2 49 16 93 30 44
15 87 31 97 35 9 5 58 25 109 45 51 20 99 41 107 48 8 7 17 11 18 10 2 -1 19
4 38 12 20 8 40 15 46 15 5 0 10 5 10 10 0 6 6 10 13 10 6 0 64 27 127 60 63
32 135 69 160 82 25 13 51 29 58 36 7 6 20 12 28 12 8 0 14 3 14 8 0 4 13 13
29 20 84 37 491 327 614 437 19 17 60 53 92 80 75 64 282 272 360 360 33 38
65 73 70 79 6 6 28 35 50 63 21 29 43 53 47 53 4 0 8 7 8 15 0 8 3 15 8 15 4
0 18 17 32 38 14 20 30 41 37 45 7 4 13 14 13 21 0 7 8 21 18 32 10 10 27 34
37 51 11 18 23 33 27 33 4 0 8 5 8 10 0 6 23 44 50 85 28 41 50 77 50 80 0 3
16 30 35 60 19 30 31 55 27 55 -4 0 -2 4 4 8 6 4 44 75 83 157 40 83 77 158
82 167 5 10 9 24 9 32 0 8 3 16 8 18 4 1 15 26 25 53 73 202 105 295 100 295
-3 0 -1 6 4 13 8 10 31 91 58 205 3 9 9 35 14 57 5 22 12 54 15 70 2 17 7 39
9 50 3 11 8 40 12 65 4 25 9 53 11 64 4 24 15 103 19 141 16 162 20 230 19
425 -1 212 -6 316 -19 420 -4 25 -8 59 -10 75 -2 17 -6 41 -8 55 -2 14 -8 50
-12 80 -4 30 -9 59 -12 63 -3 5 -7 24 -9 41 -1 18 -10 62 -19 97 -17 65 -22
86 -31 127 -2 13 -16 58 -30 100 -14 42 -26 85 -27 94 -2 10 -6 21 -10 24 -4
4 -7 14 -7 22 0 8 -6 28 -14 45 -21 49 -60 151 -62 162 -6 39 -180 388 -255
510 -10 17 -26 44 -34 62 -9 18 -23 37 -31 44 -8 6 -14 17 -14 24 0 7 -7 19
-16 26 -9 7 -20 22 -25 34 -10 23 -31 58 -40 65 -3 3 -32 41 -64 85 -51 71
-161 210 -190 241 -5 6 -39 44 -74 83 -109 122 -302 310 -412 401 -23 19 -47
40 -53 46 -23 22 -264 203 -326 244 -36 24 -66 47 -68 52 -2 4 -8 8 -14 8 -5
0 -29 14 -53 30 -24 17 -48 30 -54 30 -6 0 -11 5 -11 10 0 6 -7 10 -15 10 -8
0 -15 5 -15 10 0 6 -4 10 -9 10 -5 0 -49 23 -98 51 -48 28 -97 55 -108 60 -11
5 -27 13 -35 19 -30 20 -331 160 -343 160 -7 0 -17 4 -23 8 -5 5 -36 19 -69
32 -33 13 -73 29 -90 36 -41 17 -146 54 -167 59 -9 2 -26 9 -38 15 -11 6 -33
13 -48 15 -15 3 -56 14 -92 26 -36 11 -71 22 -78 25 -7 2 -13 4 -15 4 -1 1
-18 5 -37 10 -19 4 -61 15 -93 24 -68 19 -276 63 -357 76 -30 5 -73 11 -95 15
-22 3 -51 8 -65 11 -26 4 -84 11 -155 19 -22 2 -62 6 -90 9 -27 3 -88 8 -135
12 -102 7 -650 11 -656 5z"/>
</g>
</svg>
